<svg xmlns="http://www.w3.org/2000/svg" width="161" height="43" viewBox="0 0 161 43" fill="none"><path d="M6.83984 37.4265L14.1259 1.33496H20.3286L19.556 5.09655C22.3109 2.19569 26.0528 0.67627 30.5059 0.67627C34.826 0.67627 38.3154 2.1152 40.61 4.84031C43.0509 7.74117 43.9116 11.9036 43.0376 16.5653C41.5123 24.7702 35.5006 30.0725 27.7227 30.0725C23.1716 30.0725 17.9376 28.2197 15.8257 23.1851L15.3771 25.3205L13.104 37.4183L6.83984 37.4265ZM28.4754 5.84394C22.8892 5.84394 18.8814 9.01912 17.7548 14.3363C17.15 17.3045 17.6385 19.8522 19.1705 21.7018C20.7956 23.6631 23.4823 24.7439 26.7357 24.7439C32.0611 24.7439 35.7565 21.6229 36.8715 16.2023C37.5162 13.0649 37.0675 10.4531 35.5704 8.63804C34.0733 6.82294 31.5726 5.84394 28.4754 5.84394Z" fill="white"></path><path d="M54.5595 30.13C50.9522 30.13 48.2737 29.238 46.6005 27.4804C44.8342 25.6243 44.585 23.2474 44.6863 21.5785C44.8741 18.0846 46.8613 13.7613 55.2657 13.0369L67.4601 12.0349C67.6146 10.0637 67.2175 8.5361 66.277 7.49304C65.2219 6.32349 63.464 5.73051 61.053 5.73051C56.8608 5.73051 54.5877 7.51111 53.4562 11.6817L53.3482 12.0759H47.1571L47.3083 11.4189C48.8885 4.62174 53.9547 0.722168 61.2275 0.722168C65.6423 0.722168 69.2447 2.13482 71.3632 4.69895C73.4335 7.20065 74.0799 10.7175 73.2325 14.87L71.1787 24.7093H75.2895V29.9296H68.6631C67.3671 29.9296 66.3668 29.5435 65.7719 28.8109C65.2053 28.1145 65.0408 27.142 65.2951 26.0021L65.4612 25.2185C63.4573 27.8434 60.287 30.13 54.5595 30.13ZM56.349 17.5459C52.7151 17.8744 51.3094 18.763 50.9738 20.9264C50.786 22.1156 50.9887 23.0618 51.5803 23.7484C52.328 24.614 53.7005 25.0625 55.5448 25.0625C58.0813 25.0565 60.5445 24.2209 62.5502 22.6859C64.5559 21.1509 65.9914 19.0028 66.6326 16.5767L56.349 17.5459Z" fill="white"></path><path d="M98.2026 29.9293V13.4522C98.2026 10.8421 97.6426 8.9564 96.541 7.84927C95.4394 6.74215 93.9522 6.1853 92.0431 6.1853C89.6919 6.1853 87.9223 6.91298 86.6362 8.4094C85.3502 9.90583 84.6922 11.9657 84.6922 14.5183V29.9293H78.2734V1.08169H84.1073L84.5443 4.32914C85.4007 3.23234 86.4838 2.32854 87.7213 1.67796C89.4659 0.753479 91.4178 0.277848 93.3973 0.294875C97.179 0.294875 100.029 1.39707 101.871 3.58011C103.688 5.72701 104.608 8.6558 104.608 12.286V29.9293H98.2026Z" fill="white"></path><path d="M107.589 29.9526V24.8933L122.013 6.51081H107.589V0.929199H130.291V6.04759L115.761 24.371H130.291V29.9526H107.589Z" fill="white"></path><path d="M145.746 29.9543C137.923 29.9543 131.35 23.9193 130.78 16.2171C130.75 15.859 130.735 15.4862 130.735 15.1149C130.777 11.2065 132.377 7.47217 135.187 4.72295C137.997 1.97372 141.792 0.431641 145.745 0.431641C149.699 0.431641 153.493 1.97372 156.304 4.72295C159.114 7.47217 160.714 11.2065 160.755 15.1149C160.755 15.4862 160.74 15.859 160.71 16.222L160.671 16.7148H136.295C136.62 18.5826 137.504 20.3111 138.832 21.6772C140.161 23.0432 141.874 23.984 143.749 24.3779C145.624 24.7717 147.575 24.6007 149.351 23.8867C151.127 23.1728 152.645 21.9488 153.71 20.3729L153.876 20.1364H159.906L159.592 20.8756C158.447 23.5698 156.521 25.8691 154.058 27.4845C151.594 29.0998 148.702 29.9591 145.746 29.9543ZM154.898 12.2913C154.289 10.3628 153.072 8.67729 151.426 7.48048C149.779 6.28367 147.789 5.6382 145.745 5.6382C143.702 5.6382 141.711 6.28367 140.065 7.48048C138.418 8.67729 137.202 10.3628 136.592 12.2913H154.898Z" fill="white"></path><path d="M6.81471 37.4232V36.891C6.8141 35.0769 6.27799 33.3025 5.27212 31.7852C4.26625 30.268 2.83434 29.0739 1.152 28.3494L0.754883 28.1851L1.82993 22.8877L2.41814 23.0963C5.28862 24.1229 7.77022 25.9974 9.52632 28.4657C11.2824 30.9341 12.228 33.8766 12.2348 36.8943V37.4265L6.81471 37.4232Z" fill="white"></path><path d="M119.603 40.3273H120.767C120.761 40.4703 120.789 40.6126 120.85 40.7425C120.911 40.8724 121.002 40.9863 121.115 41.0747C121.389 41.2701 121.722 41.3669 122.059 41.349C122.41 41.371 122.759 41.2837 123.056 41.0994C123.167 41.0256 123.256 40.9255 123.317 40.8084C123.378 40.6913 123.409 40.5609 123.405 40.4292C123.412 40.2413 123.344 40.0582 123.217 39.9183C123.026 39.7493 122.792 39.6356 122.539 39.5898L121.428 39.3336C120.961 39.2462 120.528 39.0291 120.182 38.7077C120.043 38.5581 119.936 38.3831 119.866 38.1926C119.796 38.002 119.765 37.7998 119.775 37.5973C119.766 37.2414 119.872 36.8921 120.079 36.6002C120.291 36.3083 120.582 36.0808 120.918 35.9432C121.309 35.7829 121.729 35.7046 122.152 35.7132C122.568 35.7031 122.981 35.7857 123.36 35.9547C123.685 36.1038 123.962 36.3385 124.161 36.6331C124.361 36.9418 124.467 37.3012 124.465 37.6679H123.302C123.306 37.5268 123.279 37.3864 123.224 37.2563C123.168 37.1262 123.085 37.0095 122.98 36.914C122.734 36.7222 122.426 36.6263 122.114 36.6446C121.802 36.6253 121.492 36.711 121.235 36.8877C121.135 36.9653 121.054 37.0652 121 37.1794C120.946 37.2936 120.92 37.4188 120.924 37.5447C120.924 37.962 121.235 38.2478 121.855 38.4022L122.966 38.6699C123.415 38.7459 123.832 38.9477 124.168 39.2514C124.306 39.3971 124.412 39.5689 124.481 39.7563C124.55 39.9438 124.579 40.143 124.568 40.3421C124.576 40.7103 124.463 41.071 124.246 41.3704C124.019 41.6726 123.713 41.9074 123.36 42.0488C122.938 42.2143 122.486 42.2941 122.031 42.2837C121.29 42.2837 120.7 42.1052 120.261 41.7482C120.048 41.5776 119.878 41.3605 119.764 41.114C119.65 40.8675 119.595 40.5983 119.603 40.3273Z" fill="white"></path><path d="M125.883 35.8956H129.578V36.9042H125.883V35.8956ZM128.339 42.1376H127.124V33.9409H128.339V42.1376Z" fill="white"></path><path d="M135.676 35.8955H136.879V42.1375H135.793L135.663 41.1929C135.464 41.5343 135.168 41.8098 134.811 41.9847C134.416 42.19 133.977 42.295 133.531 42.2902C132.8 42.2902 132.234 42.0624 131.833 41.6069C131.432 41.1513 131.231 40.5408 131.231 39.7754V35.8955H132.446V39.3811C132.446 40.0459 132.582 40.5211 132.853 40.8069C132.996 40.9512 133.169 41.0638 133.359 41.1374C133.55 41.211 133.754 41.2439 133.958 41.234C134.518 41.234 134.944 41.0615 135.238 40.7166C135.531 40.3716 135.677 39.863 135.676 39.1906V35.8955Z" fill="white"></path><path d="M141.686 42.2934C141.131 42.3085 140.583 42.1647 140.109 41.8795C139.667 41.5994 139.315 41.2005 139.095 40.7296C138.859 40.1948 138.736 39.6174 138.736 39.0336C138.736 38.4499 138.859 37.8724 139.095 37.3376C139.323 36.8383 139.695 36.4173 140.166 36.1285C140.637 35.8397 141.184 35.6962 141.737 35.7164C142.193 35.7079 142.643 35.8112 143.048 36.017C143.431 36.2162 143.745 36.5254 143.947 36.904V33.9473H145.148V42.1472H144.063L143.96 41.0105C143.764 41.4155 143.445 41.7501 143.048 41.9682C142.63 42.1916 142.161 42.3037 141.686 42.2934ZM141.932 41.2076C142.307 41.2179 142.677 41.1203 142.997 40.9267C143.297 40.7368 143.536 40.4669 143.688 40.1481C143.858 39.7887 143.942 39.3952 143.934 38.9983C143.944 38.6013 143.859 38.2076 143.688 37.8485C143.535 37.5325 143.295 37.265 142.997 37.0764C142.677 36.8828 142.307 36.7853 141.932 36.7956C141.568 36.781 141.209 36.8749 140.9 37.065C140.591 37.2551 140.347 37.5327 140.2 37.8616C140.04 38.2169 139.96 38.6027 139.968 38.9917C139.96 39.3872 140.039 39.7796 140.2 40.1416C140.342 40.4588 140.572 40.729 140.865 40.9202C141.184 41.1179 141.555 41.2179 141.932 41.2076Z" fill="white"></path><path d="M148.766 36.8018H147.552V42.1419H148.766V36.8018Z" fill="white"></path><path d="M148.947 34.7341C148.947 34.8372 148.927 34.9394 148.888 35.0347C148.848 35.13 148.79 35.2166 148.716 35.2893C148.603 35.3986 148.461 35.4729 148.306 35.503C148.151 35.5331 147.991 35.5176 147.845 35.4585C147.699 35.3994 147.574 35.2993 147.485 35.1705C147.396 35.0417 147.347 34.89 147.345 34.7341C147.342 34.6291 147.362 34.5247 147.404 34.4279C147.445 34.3311 147.506 34.244 147.584 34.1723C147.696 34.0615 147.839 33.986 147.994 33.9555C148.149 33.925 148.31 33.9409 148.456 34.0012C148.602 34.0614 148.727 34.1633 148.814 34.2938C148.902 34.4243 148.948 34.5776 148.947 34.7341Z" fill="white"></path><path d="M150.756 39.0111C150.744 38.4178 150.89 37.8319 151.181 37.3126C151.455 36.8278 151.857 36.4258 152.344 36.1497C152.862 35.8632 153.448 35.7181 154.042 35.7292C154.634 35.7176 155.219 35.8628 155.735 36.1497C156.222 36.4261 156.624 36.828 156.898 37.3126C157.179 37.8359 157.325 38.419 157.325 39.0111C157.325 39.6032 157.179 40.1863 156.898 40.7096C156.624 41.1942 156.222 41.5961 155.735 41.8725C155.219 42.1594 154.634 42.3046 154.042 42.2931C153.448 42.3041 152.862 42.159 152.344 41.8725C151.857 41.5964 151.455 41.1944 151.181 40.7096C150.89 40.1903 150.744 39.6044 150.756 39.0111ZM151.982 39.0111C151.974 39.4101 152.065 39.8049 152.248 40.1609C152.414 40.4815 152.667 40.7508 152.977 40.9395C153.304 41.1242 153.673 41.2214 154.05 41.2214C154.426 41.2214 154.796 41.1242 155.122 40.9395C155.433 40.7508 155.685 40.4815 155.852 40.1609C156.026 39.802 156.116 39.4091 156.116 39.0111C156.116 38.6131 156.026 38.2202 155.852 37.8613C155.678 37.5374 155.419 37.2664 155.101 37.0774C154.784 36.8884 154.42 36.7885 154.05 36.7885C153.679 36.7885 153.315 36.8884 152.998 37.0774C152.68 37.2664 152.421 37.5374 152.248 37.8613C152.065 38.2172 151.974 38.6121 151.982 39.0111Z" fill="white"></path><path d="M159.568 42.2935C159.324 42.2955 159.089 42.2016 158.915 42.0324C158.827 41.9522 158.756 41.8544 158.708 41.7454C158.66 41.6365 158.636 41.5187 158.638 41.4C158.636 41.2791 158.659 41.1592 158.707 41.048C158.755 40.9368 158.826 40.8368 158.915 40.7544C159.089 40.5852 159.324 40.4913 159.568 40.4932C159.688 40.4918 159.807 40.5141 159.918 40.559C160.029 40.6038 160.13 40.6703 160.215 40.7544C160.303 40.8376 160.372 40.938 160.419 41.0491C160.465 41.1602 160.488 41.2797 160.486 41.4C160.487 41.5182 160.464 41.6355 160.418 41.7444C160.371 41.8533 160.302 41.9513 160.215 42.0324C160.13 42.1165 160.029 42.1829 159.918 42.2278C159.807 42.2727 159.688 42.295 159.568 42.2935Z" fill="white"></path></svg>